PathFileType	4	(X/Y/Z)	s07c0403.trc
DataRate	CameraRate	NumFrames	NumMarkers	Units	OrigDataRate	OrigDataStartFrame	OrigNumFrames
200	200	6	48	mm	200	1500	2000
Frame#	Time	racr			lacr			c7			jug			rlel			rdr			llel			ldr			s2			lic			ric			lasi			rasi			rpsi			lpsi			rgt			lgt			rth1			rth2			rth3			rth4			rlfc			rmfc			rsh1			rsh2			rsh3			rsh4			rlmal			rcal			rtoe			rmt5			lth1			lth2			lth4			lth3			llfc			lmfc			lsh1			lsh2			lsh3			lsh4			llmal			lcal			ltoe			lmt5			SBIKE			LBIKE			RBIKE			
		X1	Y1	Z1	X2	Y2	Z2	X3	Y3	Z3	X4	Y4	Z4	X5	Y5	Z5	X6	Y6	Z6	X7	Y7	Z7	X8	Y8	Z8	X9	Y9	Z9	X10	Y10	Z10	X11	Y11	Z11	X12	Y12	Z12	X13	Y13	Z13	X14	Y14	Z14	X15	Y15	Z15	X16	Y16	Z16	X17	Y17	Z17	X18	Y18	Z18	X19	Y19	Z19	X20	Y20	Z20	X21	Y21	Z21	X22	Y22	Z22	X23	Y23	Z23	X24	Y24	Z24	X25	Y25	Z25	X26	Y26	Z26	X27	Y27	Z27	X28	Y28	Z28	X29	Y29	Z29	X30	Y30	Z30	X31	Y31	Z31	X32	Y32	Z32	X33	Y33	Z33	X34	Y34	Z34	X35	Y35	Z35	X36	Y36	Z36	X37	Y37	Z37	X38	Y38	Z38	X39	Y39	Z39	X40	Y40	Z40	X41	Y41	Z41	X42	Y42	Z42	X43	Y43	Z43	X44	Y44	Z44	X45	Y45	Z45	X46	Y46	Z46	X47	Y47	Z47	X48	Y48	Z48	
1500	7.5000	837.655755	1334.860040	-113.524214	830.181172	1369.196774	-463.067968	849.303362	1417.371915	-284.390647	786.805043	1279.116711	-299.311762	543.572792	1156.090069	20.295185	693.859841	935.236458	-67.525688	536.712813	1161.068787	-519.364883	673.076596	918.386030	-440.427853	247.576507	1260.714492	-227.867222	390.392944	1312.397023	-376.578451	449.781554	1238.333128	-109.612187	406.981711	1228.874244	-376.257500	449.044580	1184.068931	-127.056913	294.254721	1285.934881	-178.572371	283.132034	1311.664374	-281.144801	348.930680	1125.766830	-68.956187	318.993567	1172.129921	-429.395164	358.629535	970.692012	-67.413197	367.619005	883.488622	-75.023634	336.979660	803.492541	-69.891181	399.520599	880.370183	-93.156510	318.033303	669.894466	-104.007357	284.803339	660.087743	-201.153993	235.122457	555.501750	-68.533300	206.063642	472.056346	-84.546000	144.856999	411.549763	-73.846749	217.463474	467.067409	-122.633067	63.292918	297.046590	-70.586001	-11.356522	298.298612	-94.139839	220.826378	124.713027	-131.030118	141.779513	135.175652	-55.230194	402.758410	1082.922651	-439.543178	484.879485	1050.306515	-446.334850	507.825441	1078.024877	-436.643488	540.103027	980.447966	-448.606384	661.926702	848.944987	-423.796168	656.962671	834.093940	-321.738998	543.860578	763.562738	-431.238617	472.420154	695.163166	-409.283275	396.527731	680.985835	-412.420056	489.102012	705.299988	-369.683102	272.670542	620.597620	-407.860899	197.320816	647.043084	-369.778563	365.417985	410.240633	-361.013050	296.682193	457.361411	-427.978221	-261.671092	964.868476	-236.259837	-82.805293	79.337882	-436.528778	-82.767407	79.123506	-38.994555	
1501	7.5050	837.686658	1333.134243	-115.542950	830.744370	1367.188641	-465.350732	849.892816	1415.958608	-286.284008	786.404730	1278.138977	-300.810676	543.550634	1155.496163	19.571219	693.591194	934.538188	-68.122573	535.574857	1160.688517	-519.177419	673.014224	918.659917	-440.318128	247.763525	1263.362022	-226.065438	389.243178	1314.530995	-376.230904	450.768581	1240.205323	-109.687832	405.604601	1230.918103	-376.089530	449.835131	1185.943955	-127.559946	294.879608	1288.215876	-177.208540	283.001976	1314.111387	-279.793437	350.761980	1127.278378	-68.342031	316.870568	1174.120211	-428.024471	361.742698	971.964589	-68.519726	371.893762	885.031052	-75.913543	342.037591	804.561242	-71.486151	403.881939	882.043701	-93.662538	323.811956	670.449298	-104.946636	290.975911	661.120881	-201.988456	237.813322	558.207703	-69.213661	206.963792	475.371926	-84.963309	144.252911	416.351451	-74.286878	218.235322	469.899122	-123.023033	59.982265	304.203094	-70.818836	-14.288872	308.042490	-94.912676	211.133787	125.656777	-130.764582	132.500911	139.379995	-55.102429	400.349021	1084.116046	-438.212438	482.532785	1051.259538	-445.612332	505.362740	1079.179368	-436.711837	537.189683	981.387492	-448.358662	659.972306	850.085537	-423.576430	655.143121	835.290805	-321.199142	542.714299	763.540284	-431.402161	473.066822	693.505801	-409.386135	397.050824	678.013462	-412.712967	489.349090	703.674021	-370.187593	274.436140	616.129066	-407.739491	197.235569	639.097676	-370.414076	376.111180	410.851845	-361.350527	305.065990	454.324728	-428.875669	-261.674174	964.794039	-236.465679	-82.823973	79.374695	-436.517595	-82.789458	79.193297	-38.976634	
1502	7.5100	837.715689	1331.613991	-117.488026	831.523117	1364.955387	-467.395861	850.446255	1414.528579	-288.113984	786.178502	1277.159477	-302.138476	543.556145	1155.019297	18.705697	693.486364	933.960825	-68.814603	534.613299	1160.335547	-519.057820	682.944167	923.340942	-449.607784	247.939049	1266.305906	-224.545035	388.300849	1316.408166	-375.942881	451.791923	1242.088375	-109.650364	404.156705	1232.933677	-376.145295	450.512214	1188.459070	-127.852837	295.581998	1290.760793	-176.008486	282.954855	1316.758176	-278.763414	352.418369	1128.955542	-67.908189	314.747354	1176.029293	-426.783385	365.200597	973.318035	-69.626413	376.600682	886.605254	-77.539239	348.153467	805.600237	-73.433143	408.858752	884.179305	-94.757408	330.004186	670.875496	-106.540078	298.728529	662.309524	-203.778570	241.746551	561.246271	-70.042109	208.998189	479.096325	-85.519025	144.801812	421.674838	-74.941724	220.359072	473.082065	-123.504407	57.865182	311.925435	-71.290593	-15.910592	318.509794	-95.703806	201.578241	126.860858	-130.586602	123.430495	144.190380	-55.082938	397.580667	1085.118637	-437.059549	479.422078	1051.858283	-445.057276	502.596100	1079.743588	-436.660136	533.844250	981.733845	-447.482565	657.154842	850.415953	-423.238138	651.683083	835.078356	-321.570481	540.533410	762.480980	-431.621075	472.839317	691.079412	-409.398494	396.533564	674.104229	-412.939722	481.876292	691.296186	-357.084542	275.091624	610.099523	-407.524883	196.150228	629.778212	-371.185625	386.277576	411.240869	-361.800593	312.885929	450.446591	-430.075563	-261.724266	964.806665	-236.592901	-82.831593	79.355049	-436.548444	-82.778495	79.219065	-39.014198	
1503	7.5150	837.351553	1330.016798	-120.296385	832.426247	1362.374282	-468.980815	851.127188	1413.145891	-289.428133	785.951467	1276.096499	-303.224293	543.565899	1154.652335	17.591592	693.664119	933.663963	-69.053387	533.873647	1159.996568	-519.018760	682.759986	923.538955	-449.391397	248.159614	1269.340845	-223.227840	387.502393	1318.209933	-375.739757	452.351271	1244.516741	-109.610280	402.798891	1234.877254	-375.996421	451.058373	1190.884542	-128.162975	296.285971	1293.664721	-175.098798	283.007241	1319.611717	-277.812931	353.955172	1130.873283	-67.527316	312.618476	1178.022745	-425.654003	368.974976	974.617202	-70.754043	382.012559	888.173284	-79.317528	355.215887	806.687088	-75.714510	414.303052	886.619912	-96.217736	338.913519	672.029285	-107.174112	308.074932	663.295280	-205.651373	246.879184	564.584590	-70.970909	213.530382	483.289939	-85.429519	146.528413	427.528391	-75.437064	223.270421	476.947438	-124.475825	57.162843	320.189714	-71.499510	-15.826119	329.756306	-96.343015	192.078155	128.031888	-130.339192	114.848522	149.511473	-55.077867	394.656718	1085.960273	-436.115636	476.184919	1052.015852	-444.377334	499.611907	1079.781719	-436.529155	529.691364	981.502097	-447.286408	653.308971	849.913130	-422.791055	647.804061	834.171917	-321.324620	537.326690	760.214297	-431.793861	471.812658	687.882204	-409.316618	395.063422	669.102669	-413.000106	479.504657	688.103780	-357.023786	274.876278	602.194598	-406.995876	194.349682	619.020732	-371.884214	395.898955	411.363680	-362.390636	320.078708	445.599717	-431.340547	-261.744415	964.811939	-236.792487	-82.834174	79.366153	-436.563129	-82.770501	79.286236	-39.024307	
1504	7.5200	837.268205	1329.083992	-121.781976	833.537163	1359.476767	-470.085900	851.645142	1411.774078	-290.816939	785.743953	1275.165672	-304.062700	543.585869	1154.521791	16.398393	694.053203	933.637960	-69.059894	533.223138	1159.659741	-519.123513	683.957730	926.135848	-454.285665	248.424468	1272.330653	-222.172488	386.851223	1319.928010	-375.683102	452.852056	1247.084798	-109.565710	401.503342	1236.804068	-376.053797	451.495255	1193.250672	-128.512565	296.863719	1296.695559	-174.370504	283.101022	1322.337567	-277.178906	355.456513	1132.900832	-67.126895	310.582779	1180.162611	-424.607809	373.115350	976.027152	-71.799155	387.902726	890.042250	-81.288161	362.967099	807.839258	-78.260218	420.252276	889.236570	-98.067150	346.899805	672.760042	-109.772955	318.196302	664.239358	-207.112531	253.217251	568.190003	-71.994098	218.193842	487.728598	-85.871935	149.627510	433.548049	-75.904146	227.825820	480.781905	-124.874485	58.040873	328.698600	-71.435786	-14.390429	341.612977	-97.081083	182.694988	129.462264	-130.097296	106.659098	155.062088	-55.063510	391.802293	1086.771783	-435.333458	472.933890	1051.804420	-443.720704	494.453158	1079.474354	-438.272394	525.695702	980.673686	-446.437686	645.683513	848.957393	-425.348974	643.009527	832.012683	-320.022161	533.059900	757.243489	-432.215460	470.075221	683.925847	-409.139385	392.734379	663.690879	-413.592591	476.171649	684.328487	-356.697694	274.019460	594.433889	-407.333664	191.790577	606.966479	-372.351166	405.199238	411.771442	-363.671713	326.728409	440.215477	-431.693781	-261.705095	964.856221	-237.023124	-82.831353	79.362926	-436.593912	-82.747999	79.351545	-39.064448	
1505	7.5250	837.108663	1328.552323	-123.063901	834.646885	1356.329686	-470.729029	851.968579	1410.493178	-292.499506	785.393337	1274.204261	-304.730953	543.680937	1154.553969	15.104221	694.449910	933.687256	-69.093606	532.683053	1159.274528	-519.346787	684.003491	926.165910	-454.275931	248.635734	1275.208024	-221.257164	386.329869	1321.489623	-375.711675	453.257404	1249.641751	-109.571287	400.445259	1238.567197	-375.857213	450.704072	1195.476193	-129.530319	297.295903	1299.596189	-173.878079	283.236667	1324.927784	-276.735912	356.710168	1134.645715	-67.517656	308.769337	1182.352441	-423.671504	377.630036	977.266368	-72.921954	394.377901	891.723571	-83.387592	371.233654	809.062006	-80.904724	426.820856	891.949310	-100.730459	357.079385	673.962604	-111.139341	328.721068	665.401313	-208.588239	260.661619	572.119545	-73.077024	224.304494	492.502334	-85.651397	153.965420	439.822638	-76.239970	233.477230	484.985780	-125.194968	60.119193	337.322076	-71.400820	-11.776480	353.653696	-97.456194	173.757748	131.148808	-129.670130	98.969514	161.099259	-55.071390	389.105089	1087.546878	-434.656370	469.680290	1051.419961	-443.170839	491.855361	1078.698724	-437.589405	521.564712	979.532307	-445.612048	641.471137	846.342533	-423.073242	636.987702	829.352980	-320.171114	527.948705	753.405094	-432.507726	467.723674	679.237163	-408.870256	389.217535	656.660180	-412.846805	471.680969	679.550194	-356.220959	271.862224	585.872806	-407.098535	188.648075	593.586663	-372.356823	413.264499	411.750105	-363.909224	333.279124	435.205920	-432.250401	-261.624854	964.941954	-237.315970	-82.830029	79.367672	-436.626303	-82.769061	79.594663	-39.021834	
